# 3ds Max Wavefront OBJ Exporter v0.97b - (c)2007 guruware
# File Created: 23.04.2017 09:38:10

#
# object Cylinder001
#

v  -24.0486 0.0000 7.5744
v  -25.0186 0.0000 3.9542
v  -22.5320 0.0000 4.7943
v  -20.0453 0.0000 5.6344
v  -20.1736 0.0000 3.6776
v  -23.1025 0.0000 1.9258
v  -20.5562 0.0000 1.7543
v  -22.6039 0.0000 -0.4331
v  -24.0212 0.0000 -0.7636
v  -23.1433 0.0000 -3.4918
v  -25.2124 0.0000 -2.3160
v  -27.7018 0.0000 -1.1984
v  -28.6387 0.0000 1.1103
v  -30.4323 0.0000 -0.5929
v  -27.6627 0.0000 -4.4950
v  -24.4362 0.0000 -4.9661
v  -27.5410 0.0000 -7.3485
v  -25.9105 0.0000 -6.2591
v  -31.1566 0.0000 -8.8462
v  -29.3573 0.0000 -5.4734
v  -33.0967 0.0000 -5.3537
v  -34.0583 0.0000 -7.4189
v  -35.0367 0.0000 -1.8613
v  -36.9767 0.0000 -1.6059
v  -36.9851 0.0000 -5.4173
v  -36.9934 0.0000 -9.2287
v  -35.0367 0.0000 -5.6091
v  -42.7523 0.0000 1.2548
v  -39.6268 0.0000 1.0442
v  -42.2769 0.0000 3.6943
v  -41.0403 0.0000 -5.7509
v  -40.7736 0.0000 -8.2158
v  -39.0314 0.0000 -6.5989
v  -39.1460 0.0000 -4.3517
v  -42.5324 0.0000 -7.3485
v  -43.4720 0.0000 -4.1261
v  -44.1628 0.0000 -6.2591
v  -46.0392 0.0000 -1.2876
v  -43.2276 0.0000 -1.1847
v  -46.9301 0.0000 -3.4918
v  -45.6372 0.0000 -4.9661
v  -48.0196 0.0000 -1.8613
v  -48.8869 0.0000 -0.1026
v  -44.0859 0.0000 9.0120
v  -41.3069 0.0000 7.3145
v  -42.6320 0.0000 10.5795
v  -47.8348 0.0000 3.2093
v  -45.1483 0.0000 0.9165
v  -49.8998 0.0000 3.6776
v  -49.5172 0.0000 1.7543
v  -47.2221 0.0000 9.8695
v  -48.0261 0.0000 6.1277
v  -45.5398 0.0000 7.4444
v  -50.0280 0.0000 5.6344
v  -49.5172 0.0000 9.5144
v  -48.8869 0.0000 11.3713
v  -47.4077 0.0000 11.9319
v  -44.9271 0.0000 10.2245
v  -48.0196 0.0000 13.1300
v  -43.4520 0.0000 15.1224
v  -45.9286 0.0000 12.4925
v  -42.7412 0.0000 12.7170
v  -45.6372 0.0000 16.2348
v  -46.9301 0.0000 14.7605
v  -37.3482 0.0000 15.7606
v  -38.8426 0.0000 13.3476
v  -34.9770 0.0000 13.9209
v  -41.5438 0.0000 16.9134
v  -42.8533 0.0000 17.2206
v  -38.9167 0.0000 20.1149
v  -40.7736 0.0000 19.4846
v  -39.0609 0.0000 17.6226
v  -40.5553 0.0000 15.2096
v  -36.9934 0.0000 20.4974
v  -35.5673 0.0000 18.4045
v  -35.0367 0.0000 20.6257
v  -33.0799 0.0000 20.4974
v  -32.6489 0.0000 18.2133
v  -29.2997 0.0000 19.4845
v  -30.2943 0.0000 15.8052
v  -26.4505 0.0000 7.8677
v  -29.4149 0.0000 8.8801
v  -27.5410 0.0000 5.6344
v  -26.2909 0.0000 15.0778
v  -25.9105 0.0000 17.5278
v  -28.0119 0.0000 16.4169
v  -28.4828 0.0000 14.2165
v  -24.4362 0.0000 16.2348
v  -24.3626 0.0000 12.8790
v  -23.1432 0.0000 14.7605
v  -22.6175 0.0000 9.4728
v  -25.3599 0.0000 10.1011
v  -21.1865 0.0000 11.3713
v  -22.0538 0.0000 13.1300
v  -20.5562 0.0000 9.5144
v  -22.1111 0.0000 7.5827
v  -29.4149 0.0000 3.7604
v  -33.1628 0.0000 3.7604
v  -31.2889 0.0000 1.8865
v  -33.5509 0.0000 11.8280
v  -33.5509 0.0000 8.5823
v  -31.2888 0.0000 12.1258
v  -35.0367 0.0000 5.6344
v  -31.2889 0.0000 5.6344
v  -34.1411 0.0000 16.3116
v  -32.7150 0.0000 14.2187
v  -35.8129 0.0000 11.5302
v  -38.6568 0.0000 4.6644
v  -37.6868 0.0000 8.2845
v  -46.1525 0.0000 4.6643
v  -36.0067 0.0000 2.0142
v  -35.0367 0.0000 1.8865
v  -26.7648 0.0000 2.9842
v  -22.0538 0.0000 -1.8613
v  -30.7916 0.0000 -3.8848
v  -33.6312 0.0000 -0.2048
v  -27.1700 0.0000 11.2390
v  -26.6713 0.0000 12.6279
v  -28.9801 0.0000 12.3769
v  -38.0749 0.0000 11.2324
v  -49.8998 0.0000 7.5911
v  -40.7919 0.0000 13.0323
v  -40.3369 0.0000 10.9346
v  -43.9084 0.0000 5.5694
v  -41.1847 0.0000 -1.8154
v  -41.3069 0.0000 -3.2860
v  -39.1418 0.0000 -2.4460
v  -31.1566 0.0000 20.1149
v  -35.0367 0.0000 -9.3570
v  -29.2997 0.0000 -8.2158
v  -33.0799 0.0000 -9.2287
v  -32.2258 0.0000 -2.2962
v  -25.9886 0.0000 0.3341
v  -42.5324 0.0000 18.6172
v  -44.1628 0.0000 17.5278
v  -21.1865 0.0000 -0.1026
v  -29.4149 0.0000 -2.7310
v  -27.5410 0.0000 18.6172
v  -20.1736 0.0000 7.5911
v  -38.9167 0.0000 -8.8462
# 140 vertices

vn 0.0000 -1.0000 -0.0000
# 1 vertex normals

vt 0.6667 0.0000 0.7500
vt 0.7083 0.0000 0.7500
vt 0.7292 0.0000 0.8750
vt 0.7500 0.0000 1.0000
vt 0.7708 0.0000 1.0000
vt 0.7604 0.0000 0.8750
vt 0.7917 0.0000 1.0000
vt 0.8021 0.0000 0.9375
vt 0.7917 0.0000 0.8750
vt 0.8542 0.0000 1.0000
vt 0.8125 0.0000 0.8750
vt 0.7760 0.0000 0.7500
vt 0.7188 0.0000 0.6250
vt 0.7474 0.0000 0.6250
vt 0.8490 0.0000 0.8750
vt 0.8750 0.0000 1.0000
vt 0.9167 0.0000 1.0000
vt 0.8958 0.0000 1.0000
vt 0.9583 0.0000 1.0000
vt 0.8698 0.0000 0.8750
vt 0.8542 0.0000 0.7500
vt 0.9271 0.0000 0.8750
vt 0.2500 0.0000 0.5000
vt 0.2708 0.0000 0.5000
vt 0.1458 0.0000 0.7500
vt 0.0208 0.0000 1.0000
vt 0.1250 0.0000 0.7500
vt 0.2917 0.0000 0.6250
vt 0.3125 0.0000 0.5000
vt 0.3542 0.0000 0.5000
vt 0.1302 0.0000 0.8750
vt 0.0625 0.0000 1.0000
vt 0.1068 0.0000 0.8750
vt 0.1719 0.0000 0.7500
vt 0.0833 0.0000 1.0000
vt 0.1615 0.0000 0.8750
vt 0.1042 0.0000 1.0000
vt 0.2031 0.0000 0.8750
vt 0.2292 0.0000 0.7500
vt 0.1458 0.0000 1.0000
vt 0.1250 0.0000 1.0000
vt 0.1667 0.0000 1.0000
vt 0.1875 0.0000 1.0000
vt 0.3672 0.0000 0.6875
vt 0.3958 0.0000 0.5000
vt 0.4010 0.0000 0.6250
vt 0.2552 0.0000 0.8750
vt 0.2604 0.0000 0.7500
vt 0.2292 0.0000 1.0000
vt 0.2083 0.0000 1.0000
vt 0.3281 0.0000 0.8750
vt 0.2865 0.0000 0.8750
vt 0.3333 0.0000 0.7500
vt 0.2500 0.0000 1.0000
vt 0.2917 0.0000 1.0000
vt 0.3125 0.0000 1.0000
vt 0.3359 0.0000 0.9375
vt 0.3646 0.0000 0.7500
vt 0.3333 0.0000 1.0000
vt 0.3984 0.0000 0.8750
vt 0.3594 0.0000 0.8750
vt 0.4010 0.0000 0.7500
vt 0.3750 0.0000 1.0000
vt 0.3542 0.0000 1.0000
vt 0.4740 0.0000 0.7500
vt 0.4557 0.0000 0.6250
vt 0.5000 0.0000 0.6250
vt 0.4271 0.0000 0.8750
vt 0.4115 0.0000 0.9375
vt 0.4583 0.0000 1.0000
vt 0.4375 0.0000 1.0000
vt 0.4557 0.0000 0.8750
vt 0.4375 0.0000 0.7500
vt 0.4792 0.0000 1.0000
vt 0.4948 0.0000 0.8750
vt 0.5000 0.0000 1.0000
vt 0.5208 0.0000 1.0000
vt 0.5260 0.0000 0.8750
vt 0.5625 0.0000 1.0000
vt 0.5521 0.0000 0.7500
vt 0.6302 0.0000 0.6250
vt 0.5833 0.0000 0.5000
vt 0.6250 0.0000 0.5000
vt 0.6042 0.0000 0.8750
vt 0.6042 0.0000 1.0000
vt 0.5807 0.0000 0.8750
vt 0.5781 0.0000 0.7500
vt 0.6250 0.0000 1.0000
vt 0.6354 0.0000 0.8750
vt 0.6458 0.0000 1.0000
vt 0.6771 0.0000 0.8750
vt 0.6354 0.0000 0.7500
vt 0.6875 0.0000 1.0000
vt 0.6667 0.0000 1.0000
vt 0.7083 0.0000 1.0000
vt 0.6979 0.0000 0.8750
vt 0.6563 0.0000 0.5000
vt 0.5938 0.0000 0.2500
vt 0.6875 0.0000 0.5000
vt 0.5156 0.0000 0.5000
vt 0.5260 0.0000 0.3750
vt 0.5417 0.0000 0.5000
vt 0.5000 0.0000 0.0000
vt 0.5625 0.0000 0.2500
vt 0.5104 0.0000 0.7500
vt 0.5260 0.0000 0.6250
vt 0.4896 0.0000 0.5000
vt 0.4271 0.0000 0.2500
vt 0.4688 0.0000 0.2500
vt 0.3021 0.0000 0.7500
vt 0.3854 0.0000 0.2500
vt 0.3750 0.0000 0.2500
vt 0.8750 0.0000 0.7500
vt 0.6875 0.0000 0.6250
vt 0.8333 0.0000 1.0000
vt 0.8229 0.0000 0.7500
vt 0.6250 0.0000 0.2500
vt 0.7005 0.0000 0.4375
vt 0.6042 0.0000 0.6875
vt 0.6042 0.0000 0.7500
vt 0.5729 0.0000 0.6250
vt 0.4635 0.0000 0.5000
vt 0.2708 0.0000 1.0000
vt 0.4284 0.0000 0.6875
vt 0.4375 0.0000 0.5000
vt 0.3437 0.0000 0.6250
vt 0.2318 0.0000 0.6875
vt 0.1979 0.0000 0.7500
vt 0.2344 0.0000 0.6250
vt 0.5417 0.0000 1.0000
vt 0.0000 0.0000 1.0000
vt 0.9375 0.0000 1.0000
vt 0.7500 0.0000 0.5000
vt 0.9792 0.0000 1.0000
vt 1.0000 0.0000 1.0000
vt 0.7760 0.0000 0.6250
vt 0.7500 0.0000 0.7500
vt 0.4167 0.0000 1.0000
vt 0.3958 0.0000 1.0000
vt 0.8125 0.0000 1.0000
vt 0.8021 0.0000 0.7500
vt 0.5833 0.0000 1.0000
vt 0.7292 0.0000 1.0000
vt 0.0417 0.0000 1.0000
# 144 texture coords

o Cylinder001
g Cylinder001
f 1/1/1 2/2/1 3/3/1 
f 4/4/1 3/3/1 5/5/1 
f 5/5/1 3/3/1 6/6/1 
f 7/7/1 5/5/1 6/6/1 
f 8/8/1 6/6/1 9/9/1 
f 10/10/1 9/9/1 11/11/1 
f 12/12/1 13/13/1 14/14/1 
f 15/15/1 11/11/1 12/12/1 
f 15/15/1 16/16/1 11/11/1 
f 17/17/1 18/18/1 15/15/1 
f 19/19/1 20/20/1 21/21/1 
f 19/19/1 21/21/1 22/22/1 
f 23/23/1 24/24/1 25/25/1 
f 26/26/1 27/27/1 25/25/1 
f 28/28/1 29/29/1 30/30/1 
f 31/31/1 32/32/1 33/33/1 
f 34/34/1 33/33/1 25/25/1 
f 35/35/1 32/32/1 31/31/1 
f 36/36/1 37/37/1 31/31/1 
f 38/38/1 36/36/1 39/39/1 
f 40/40/1 41/41/1 36/36/1 
f 42/42/1 38/38/1 43/43/1 
f 44/44/1 45/45/1 46/46/1 
f 47/47/1 43/43/1 48/48/1 
f 49/49/1 50/50/1 47/47/1 
f 51/51/1 52/52/1 53/53/1 
f 52/52/1 54/54/1 49/49/1 
f 55/55/1 51/51/1 56/56/1 
f 57/57/1 51/51/1 58/58/1 
f 59/59/1 56/56/1 57/57/1 
f 60/60/1 61/61/1 62/62/1 
f 63/63/1 64/64/1 60/60/1 
f 65/65/1 66/66/1 67/67/1 
f 68/68/1 69/69/1 60/60/1 
f 70/70/1 71/71/1 72/72/1 
f 65/65/1 72/72/1 73/73/1 
f 74/74/1 75/75/1 76/76/1 
f 76/76/1 75/75/1 77/77/1 
f 77/77/1 75/75/1 78/78/1 
f 79/79/1 78/78/1 80/80/1 
f 81/81/1 82/82/1 83/83/1 
f 84/84/1 85/85/1 86/86/1 
f 87/87/1 86/86/1 80/80/1 
f 88/88/1 85/85/1 84/84/1 
f 89/89/1 90/90/1 84/84/1 
f 91/91/1 89/89/1 92/92/1 
f 93/93/1 94/94/1 89/89/1 
f 95/95/1 91/91/1 96/96/1 
f 97/97/1 98/98/1 99/99/1 
f 96/96/1 3/3/1 4/4/1 
f 100/100/1 101/101/1 102/102/1 
f 80/80/1 86/86/1 79/79/1 
f 64/64/1 61/61/1 60/60/1 
f 103/103/1 104/104/1 101/101/1 
f 105/105/1 106/106/1 80/80/1 
f 74/74/1 72/72/1 75/75/1 
f 67/67/1 66/66/1 107/107/1 
f 71/71/1 68/68/1 72/72/1 
f 108/108/1 109/109/1 45/45/1 
f 48/48/1 110/110/1 47/47/1 
f 111/111/1 108/108/1 29/29/1 
f 25/25/1 33/33/1 26/26/1 
f 112/112/1 111/111/1 23/23/1 
f 21/21/1 27/113/1 22/22/1 
f 113/114/1 97/97/1 13/13/1 
f 114/115/1 9/9/1 10/10/1 
f 20/20/1 115/116/1 21/21/1 
f 104/104/1 98/98/1 97/97/1 
f 17/17/1 15/15/1 20/20/1 
f 99/99/1 112/117/1 116/118/1 
f 90/90/1 88/88/1 84/84/1 
f 117/119/1 82/82/1 81/81/1 
f 2/2/1 83/83/1 113/114/1 
f 93/93/1 91/91/1 95/95/1 
f 103/103/1 112/117/1 98/98/1 
f 104/104/1 83/83/1 82/82/1 
f 101/101/1 82/82/1 102/102/1 
f 92/92/1 81/81/1 1/1/1 
f 118/120/1 119/121/1 117/119/1 
f 91/91/1 92/92/1 1/1/1 
f 67/67/1 100/100/1 106/106/1 
f 109/109/1 107/107/1 120/122/1 
f 121/123/1 52/52/1 51/51/1 
f 122/124/1 123/125/1 66/66/1 
f 58/58/1 46/46/1 62/62/1 
f 60/60/1 73/73/1 68/68/1 
f 61/61/1 58/58/1 62/62/1 
f 59/59/1 61/61/1 64/64/1 
f 49/49/1 47/47/1 52/52/1 
f 44/44/1 124/126/1 45/45/1 
f 103/103/1 101/101/1 109/109/1 
f 109/109/1 123/125/1 45/45/1 
f 108/108/1 45/45/1 30/30/1 
f 45/45/1 123/125/1 46/46/1 
f 110/110/1 30/30/1 124/126/1 
f 51/51/1 53/53/1 58/58/1 
f 55/55/1 121/123/1 51/51/1 
f 57/57/1 58/58/1 61/61/1 
f 59/59/1 57/57/1 61/61/1 
f 56/56/1 51/51/1 57/57/1 
f 37/37/1 35/35/1 31/31/1 
f 125/127/1 29/29/1 28/28/1 
f 48/48/1 30/30/1 110/110/1 
f 40/40/1 38/38/1 42/42/1 
f 103/103/1 109/109/1 108/108/1 
f 108/108/1 30/30/1 29/29/1 
f 111/111/1 29/29/1 24/24/1 
f 39/39/1 28/28/1 48/48/1 
f 126/128/1 127/129/1 125/127/1 
f 38/38/1 39/39/1 48/48/1 
f 128/130/1 78/78/1 79/79/1 
f 102/102/1 119/121/1 87/87/1 
f 129/131/1 27/27/1 26/26/1 
f 24/24/1 127/129/1 34/34/1 
f 103/103/1 108/108/1 111/111/1 
f 111/111/1 24/24/1 23/23/1 
f 130/132/1 20/20/1 19/19/1 
f 21/21/1 23/133/1 27/113/1 
f 27/27/1 23/23/1 25/25/1 
f 131/134/1 22/22/1 129/135/1 
f 22/22/1 27/113/1 129/135/1 
f 19/19/1 22/22/1 131/134/1 
f 103/103/1 111/111/1 112/112/1 
f 116/118/1 23/133/1 132/136/1 
f 6/6/1 133/137/1 9/9/1 
f 1/1/1 81/81/1 2/2/1 
f 101/101/1 104/104/1 82/82/1 
f 109/109/1 101/101/1 107/107/1 
f 73/73/1 60/60/1 122/124/1 
f 75/75/1 65/65/1 105/105/1 
f 75/75/1 105/105/1 78/78/1 
f 74/74/1 70/70/1 72/72/1 
f 68/68/1 71/71/1 134/138/1 
f 75/75/1 72/72/1 65/65/1 
f 78/78/1 105/105/1 80/80/1 
f 77/77/1 78/78/1 128/130/1 
f 63/63/1 60/60/1 135/139/1 
f 62/62/1 122/124/1 60/60/1 
f 68/68/1 73/73/1 72/72/1 
f 135/139/1 69/69/1 134/138/1 
f 69/69/1 68/68/1 134/138/1 
f 69/69/1 135/139/1 60/60/1 
f 11/11/1 133/137/1 12/12/1 
f 11/11/1 16/16/1 10/10/1 
f 7/7/1 6/6/1 136/140/1 
f 2/2/1 133/137/1 6/6/1 
f 9/9/1 133/137/1 11/11/1 
f 136/140/1 8/8/1 114/115/1 
f 8/8/1 9/9/1 114/115/1 
f 136/140/1 6/6/1 8/8/1 
f 2/2/1 113/114/1 133/137/1 
f 83/83/1 97/97/1 113/114/1 
f 113/114/1 13/13/1 133/137/1 
f 14/14/1 99/99/1 116/118/1 
f 132/136/1 23/133/1 21/21/1 
f 12/12/1 14/14/1 137/141/1 
f 115/116/1 137/141/1 132/136/1 
f 17/17/1 20/20/1 130/132/1 
f 18/18/1 16/16/1 15/15/1 
f 15/15/1 137/141/1 20/20/1 
f 89/89/1 118/120/1 92/92/1 
f 90/90/1 89/89/1 94/94/1 
f 85/85/1 138/142/1 86/86/1 
f 89/89/1 84/84/1 118/120/1 
f 3/3/1 2/2/1 6/6/1 
f 139/143/1 96/96/1 4/4/1 
f 93/93/1 89/89/1 91/91/1 
f 91/91/1 1/1/1 96/96/1 
f 95/95/1 96/96/1 139/143/1 
f 1/1/1 3/3/1 96/96/1 
f 97/97/1 99/99/1 13/13/1 
f 104/104/1 97/97/1 83/83/1 
f 84/84/1 87/87/1 118/120/1 
f 102/102/1 87/87/1 80/80/1 
f 119/121/1 118/120/1 87/87/1 
f 102/102/1 82/82/1 119/121/1 
f 81/81/1 83/83/1 2/2/1 
f 92/92/1 117/119/1 81/81/1 
f 106/106/1 102/102/1 80/80/1 
f 67/67/1 106/106/1 105/105/1 
f 66/66/1 123/125/1 120/122/1 
f 73/73/1 66/66/1 65/65/1 
f 73/73/1 122/124/1 66/66/1 
f 62/62/1 123/125/1 122/124/1 
f 53/53/1 44/44/1 58/58/1 
f 46/46/1 123/125/1 62/62/1 
f 43/43/1 47/47/1 50/50/1 
f 52/52/1 47/47/1 110/110/1 
f 52/52/1 110/110/1 53/53/1 
f 121/123/1 54/54/1 52/52/1 
f 66/66/1 120/122/1 107/107/1 
f 109/109/1 120/122/1 123/125/1 
f 124/126/1 30/30/1 45/45/1 
f 110/110/1 124/126/1 53/53/1 
f 36/36/1 126/128/1 39/39/1 
f 37/37/1 36/36/1 41/41/1 
f 32/32/1 140/144/1 33/33/1 
f 36/36/1 31/31/1 126/128/1 
f 40/40/1 36/36/1 38/38/1 
f 38/38/1 48/48/1 43/43/1 
f 31/31/1 34/34/1 126/128/1 
f 24/24/1 34/34/1 25/25/1 
f 127/129/1 126/128/1 34/34/1 
f 24/24/1 29/29/1 127/129/1 
f 28/28/1 30/30/1 48/48/1 
f 39/39/1 125/127/1 28/28/1 
f 103/103/1 98/98/1 104/104/1 
f 98/98/1 112/117/1 99/99/1 
f 100/100/1 102/102/1 106/106/1 
f 107/107/1 101/101/1 100/100/1 
f 107/107/1 100/100/1 67/67/1 
f 65/65/1 67/67/1 105/105/1 
f 133/137/1 13/13/1 12/12/1 
f 15/15/1 12/12/1 137/141/1 
f 112/117/1 23/133/1 116/118/1 
f 14/14/1 116/118/1 132/136/1 
f 13/13/1 99/99/1 14/14/1 
f 14/14/1 132/136/1 137/141/1 
f 115/116/1 132/136/1 21/21/1 
f 20/20/1 137/141/1 115/116/1 
f 86/86/1 138/142/1 79/79/1 
f 84/84/1 86/86/1 87/87/1 
f 118/120/1 117/119/1 92/92/1 
f 119/121/1 82/82/1 117/119/1 
f 53/53/1 124/126/1 44/44/1 
f 44/44/1 46/46/1 58/58/1 
f 33/33/1 140/144/1 26/26/1 
f 31/31/1 33/33/1 34/34/1 
f 126/128/1 125/127/1 39/39/1 
f 127/129/1 29/29/1 125/127/1 
# 0 polygons - 230 triangles

